<mxfile host="drawio-plugin" modified="2022-01-10T06:59:56.536Z" agent="5.0 (Macintosh; Intel Mac OS X 12_0_1) AppleWebKit/537.36 (KHTML, like Gecko) Chrome/89.0.4389.114 Safari/537.36" version="15.5.4" etag="txGklQk8wHkpFhXO9C-o" type="embed"><diagram id="oYT-Uam2dle0OWqPyXmc" name="Page-1"><mxGraphModel dx="948" dy="813" grid="0" gridSize="10" guides="1" tooltips="1" connect="1" arrows="1" fold="1" page="1" pageScale="1" pageWidth="850" pageHeight="1100" math="0" shadow="0"><root><mxCell id="0"/><mxCell id="1" parent="0"/><mxCell id="3" value="" style="rounded=0;whiteSpace=wrap;html=1;" vertex="1" parent="1"><mxGeometry x="171" y="193" width="379" height="422" as="geometry"/></mxCell><mxCell id="4" value="fastrest.Router" style="text;html=1;strokeColor=none;fillColor=none;align=center;verticalAlign=middle;whiteSpace=wrap;rounded=0;fontFamily=Helvetica;" vertex="1" parent="1"><mxGeometry x="174" y="151" width="77" height="39" as="geometry"/></mxCell><mxCell id="5" value="PreProcessor 1" style="rounded=1;whiteSpace=wrap;html=1;fontFamily=Helvetica;fillColor=#FFE599;" vertex="1" parent="1"><mxGeometry x="247" y="220" width="120" height="32" as="geometry"/></mxCell><mxCell id="6" value="PreProcessor 2" style="rounded=1;whiteSpace=wrap;html=1;fontFamily=Helvetica;fillColor=#FFE599;" vertex="1" parent="1"><mxGeometry x="292" y="246" width="120" height="32" as="geometry"/></mxCell><mxCell id="7" value="PreProcessor 3" style="rounded=1;whiteSpace=wrap;html=1;fontFamily=Helvetica;fillColor=#FFE599;" vertex="1" parent="1"><mxGeometry x="334" y="269" width="120" height="32" as="geometry"/></mxCell><mxCell id="8" value="PostProcessor 1" style="rounded=1;whiteSpace=wrap;html=1;fontFamily=Helvetica;fillColor=#FFE599;" vertex="1" parent="1"><mxGeometry x="337.5" y="493" width="120" height="32" as="geometry"/></mxCell><mxCell id="9" value="PostProcessor 2" style="rounded=1;whiteSpace=wrap;html=1;fontFamily=Helvetica;fillColor=#FFE599;" vertex="1" parent="1"><mxGeometry x="291.5" y="522" width="120" height="32" as="geometry"/></mxCell><mxCell id="10" value="PostProcessor 3" style="rounded=1;whiteSpace=wrap;html=1;fontFamily=Helvetica;fillColor=#FFE599;" vertex="1" parent="1"><mxGeometry x="246.5" y="548" width="120" height="32" as="geometry"/></mxCell><mxCell id="11" value="" style="rounded=1;whiteSpace=wrap;html=1;fontFamily=Helvetica;" vertex="1" parent="1"><mxGeometry x="243" y="343" width="114" height="100" as="geometry"/></mxCell><mxCell id="12" value="Service A" style="text;html=1;strokeColor=none;fillColor=none;align=center;verticalAlign=middle;whiteSpace=wrap;rounded=0;fontFamily=Helvetica;" vertex="1" parent="1"><mxGeometry x="246.5" y="313" width="60" height="30" as="geometry"/></mxCell><mxCell id="13" value="PreProcess()" style="rounded=1;whiteSpace=wrap;html=1;fontFamily=Helvetica;fillColor=#fff2cc;strokeColor=#d6b656;" vertex="1" parent="1"><mxGeometry x="254.25" y="349" width="91.5" height="23" as="geometry"/></mxCell><mxCell id="14" value="PostProcess()" style="rounded=1;whiteSpace=wrap;html=1;fontFamily=Helvetica;fillColor=#fff2cc;strokeColor=#d6b656;" vertex="1" parent="1"><mxGeometry x="254.25" y="410" width="91.5" height="24" as="geometry"/></mxCell><mxCell id="15" value="Process()" style="rounded=1;whiteSpace=wrap;html=1;fontFamily=Helvetica;fillColor=#d5e8d4;strokeColor=#82b366;" vertex="1" parent="1"><mxGeometry x="254.25" y="379" width="90.75" height="25" as="geometry"/></mxCell><mxCell id="16" value="" style="rounded=1;whiteSpace=wrap;html=1;fontFamily=Helvetica;" vertex="1" parent="1"><mxGeometry x="367" y="345" width="114" height="100" as="geometry"/></mxCell><mxCell id="17" value="Service B" style="text;html=1;strokeColor=none;fillColor=none;align=center;verticalAlign=middle;whiteSpace=wrap;rounded=0;fontFamily=Helvetica;" vertex="1" parent="1"><mxGeometry x="370.5" y="315" width="60" height="30" as="geometry"/></mxCell><mxCell id="18" value="PreProcess()" style="rounded=1;whiteSpace=wrap;html=1;fontFamily=Helvetica;fillColor=#fff2cc;strokeColor=#d6b656;" vertex="1" parent="1"><mxGeometry x="378.25" y="351" width="91.5" height="23" as="geometry"/></mxCell><mxCell id="19" value="PostProcess()" style="rounded=1;whiteSpace=wrap;html=1;fontFamily=Helvetica;fillColor=#fff2cc;strokeColor=#d6b656;" vertex="1" parent="1"><mxGeometry x="378.25" y="412" width="91.5" height="24" as="geometry"/></mxCell><mxCell id="20" value="Process()" style="rounded=1;whiteSpace=wrap;html=1;fontFamily=Helvetica;fillColor=#d5e8d4;strokeColor=#82b366;" vertex="1" parent="1"><mxGeometry x="378.25" y="381" width="90.75" height="25" as="geometry"/></mxCell></root></mxGraphModel></diagram></mxfile>